<svg version="1.1" xmlns="http://www.w3.org/2000/svg" viewBox="0 0 512 512" width="512px" height="512px">
  <path d="M512,256 L511.999,261.405 L511.997,264.58 L511.993,267.243 L511.987,269.62 L511.98,271.804 L511.971,273.847 L511.961,275.778 L511.949,277.619 L511.935,279.385 L511.92,281.086 L511.903,282.731 L511.884,284.327 L511.864,285.878 L511.843,287.391 L511.819,288.867 L511.794,290.311 L511.768,291.725 L511.74,293.111 L511.71,294.472 L511.679,295.809 L511.646,297.123 L511.611,298.417 L511.575,299.69 L511.537,300.945 L511.498,302.183 L511.457,303.404 L511.414,304.609 L511.37,305.799 L511.325,306.975 L511.277,308.137 L511.228,309.286 L511.178,310.422 L511.125,311.546 L511.072,312.659 L511.016,313.76 L510.959,314.851 L510.9,315.931 L510.84,317.001 L510.778,318.062 L510.715,319.113 L510.65,320.155 L510.583,321.189 L510.515,322.213 L510.445,323.23 L510.374,324.238 L510.3,325.239 L510.226,326.232 L510.149,327.218 L510.072,328.196 L509.992,329.167 L509.911,330.132 L509.828,331.09 L509.744,332.041 L509.658,332.986 L509.57,333.924 L509.481,334.857 L509.39,335.783 L509.298,336.704 L509.204,337.619 L509.108,338.528 L509.011,339.432 L508.913,340.331 L508.812,341.224 L508.71,342.112 L508.606,342.995 L508.501,343.873 L508.394,344.746 L508.286,345.614 L508.176,346.477 L508.064,347.336 L507.951,348.19 L507.836,349.04 L507.72,349.885 L507.602,350.726 L507.482,351.563 L507.361,352.395 L507.238,353.223 L507.113,354.047 L506.987,354.867 L506.859,355.683 L506.73,356.495 L506.599,357.303 L506.467,358.107 L506.332,358.908 L506.197,359.704 L506.059,360.497 L505.92,361.287 L505.78,362.072 L505.638,362.855 L505.494,363.633 L505.348,364.408 L505.201,365.18 L505.053,365.949 L504.903,366.714 L504.751,367.475 L504.597,368.234 L504.442,368.989 L504.286,369.741 L504.127,370.489 L503.968,371.235 L503.806,371.977 L503.643,372.717 L503.478,373.453 L503.312,374.186 L503.144,374.916 L502.975,375.643 L502.803,376.368 L502.631,377.089 L502.456,377.808 L502.28,378.523 L502.103,379.236 L501.924,379.946 L501.743,380.653 L501.561,381.357 L501.377,382.059 L501.191,382.758 L501.004,383.454 L500.815,384.147 L500.624,384.838 L500.432,385.526 L500.239,386.212 L500.044,386.894 L499.847,387.575 L499.648,388.252 L499.448,388.927 L499.246,389.6 L499.043,390.27 L498.838,390.938 L498.632,391.603 L498.423,392.265 L498.214,392.925 L498.002,393.583 L497.789,394.238 L497.575,394.891 L497.359,395.542 L497.141,396.19 L496.921,396.835 L496.7,397.479 L496.478,398.12 L496.253,398.758 L496.027,399.394 L495.8,400.029 L495.571,400.66 L495.34,401.29 L495.108,401.917 L494.874,402.542 L494.638,403.164 L494.401,403.785 L494.162,404.403 L493.922,405.019 L493.68,405.633 L493.436,406.244 L493.191,406.854 L492.944,407.461 L492.696,408.066 L492.446,408.669 L492.194,409.27 L491.94,409.868 L491.686,410.465 L491.429,411.059 L491.171,411.652 L490.911,412.242 L490.65,412.83 L490.386,413.416 L490.122,414 L489.856,414.582 L489.588,415.161 L489.318,415.739 L489.047,416.315 L488.774,416.889 L488.5,417.46 L488.224,418.03 L487.946,418.597 L487.667,419.163 L487.386,419.727 L487.104,420.288 L486.819,420.848 L486.534,421.406 L486.246,421.961 L485.957,422.515 L485.667,423.067 L485.374,423.616 L485.081,424.164 L484.785,424.71 L484.488,425.254 L484.189,425.796 L483.889,426.336 L483.587,426.874 L483.283,427.411 L482.978,427.945 L482.671,428.477 L482.362,429.008 L482.052,429.537 L481.74,430.063 L481.427,430.588 L481.112,431.111 L480.795,431.632 L480.477,432.151 L480.157,432.669 L479.835,433.184 L479.512,433.698 L479.187,434.21 L478.861,434.72 L478.532,435.228 L478.203,435.734 L477.871,436.238 L477.538,436.741 L477.203,437.242 L476.867,437.741 L476.529,438.238 L476.189,438.733 L475.848,439.226 L475.505,439.718 L475.161,440.208 L474.814,440.696 L474.466,441.182 L474.117,441.667 L473.766,442.149 L473.413,442.63 L473.058,443.109 L472.702,443.586 L472.344,444.062 L471.985,444.536 L471.624,445.007 L471.261,445.478 L470.897,445.946 L470.531,446.413 L470.163,446.878 L469.793,447.341 L469.422,447.802 L469.05,448.262 L468.675,448.719 L468.299,449.175 L467.922,449.63 L467.542,450.082 L467.161,450.533 L466.778,450.982 L466.394,451.43 L466.008,451.875 L465.62,452.319 L465.231,452.761 L464.84,453.202 L464.447,453.64 L464.052,454.077 L463.656,454.513 L463.258,454.946 L462.859,455.378 L462.458,455.808 L462.055,456.237 L461.65,456.663 L461.244,457.088 L460.836,457.511 L460.426,457.933 L460.015,458.353 L459.602,458.771 L459.187,459.187 L458.771,459.602 L458.353,460.015 L457.933,460.426 L457.511,460.836 L457.088,461.244 L456.663,461.65 L456.237,462.055 L455.808,462.458 L455.378,462.859 L454.946,463.258 L454.513,463.656 L454.077,464.052 L453.64,464.447 L453.202,464.84 L452.761,465.231 L452.319,465.62 L451.875,466.008 L451.43,466.394 L450.982,466.778 L450.533,467.161 L450.082,467.542 L449.63,467.922 L449.175,468.299 L448.719,468.675 L448.262,469.05 L447.802,469.422 L447.341,469.793 L446.878,470.163 L446.413,470.531 L445.946,470.897 L445.478,471.261 L445.007,471.624 L444.536,471.985 L444.062,472.344 L443.586,472.702 L443.109,473.058 L442.63,473.413 L442.149,473.766 L441.667,474.117 L441.182,474.466 L440.696,474.814 L440.208,475.161 L439.718,475.505 L439.226,475.848 L438.733,476.189 L438.238,476.529 L437.741,476.867 L437.242,477.203 L436.741,477.538 L436.238,477.871 L435.734,478.203 L435.228,478.532 L434.72,478.861 L434.21,479.187 L433.698,479.512 L433.184,479.835 L432.669,480.157 L432.151,480.477 L431.632,480.795 L431.111,481.112 L430.588,481.427 L430.063,481.74 L429.537,482.052 L429.008,482.362 L428.477,482.671 L427.945,482.978 L427.411,483.283 L426.874,483.587 L426.336,483.889 L425.796,484.189 L425.254,484.488 L424.71,484.785 L424.164,485.081 L423.616,485.374 L423.067,485.667 L422.515,485.957 L421.961,486.246 L421.406,486.534 L420.848,486.819 L420.288,487.104 L419.727,487.386 L419.163,487.667 L418.597,487.946 L418.03,488.224 L417.46,488.5 L416.889,488.774 L416.315,489.047 L415.739,489.318 L415.161,489.588 L414.582,489.856 L414,490.122 L413.416,490.386 L412.83,490.65 L412.242,490.911 L411.652,491.171 L411.059,491.429 L410.465,491.686 L409.868,491.94 L409.27,492.194 L408.669,492.446 L408.066,492.696 L407.461,492.944 L406.854,493.191 L406.244,493.436 L405.633,493.68 L405.019,493.922 L404.403,494.162 L403.785,494.401 L403.164,494.638 L402.542,494.874 L401.917,495.108 L401.29,495.34 L400.66,495.571 L400.029,495.8 L399.394,496.027 L398.758,496.253 L398.12,496.478 L397.479,496.7 L396.835,496.921 L396.19,497.141 L395.542,497.359 L394.891,497.575 L394.238,497.789 L393.583,498.002 L392.925,498.214 L392.265,498.423 L391.603,498.632 L390.938,498.838 L390.27,499.043 L389.6,499.246 L388.927,499.448 L388.252,499.648 L387.575,499.847 L386.894,500.044 L386.212,500.239 L385.526,500.432 L384.838,500.624 L384.147,500.815 L383.454,501.004 L382.758,501.191 L382.059,501.377 L381.357,501.561 L380.653,501.743 L379.946,501.924 L379.236,502.103 L378.523,502.28 L377.808,502.456 L377.089,502.631 L376.368,502.803 L375.643,502.975 L374.916,503.144 L374.186,503.312 L373.453,503.478 L372.717,503.643 L371.977,503.806 L371.235,503.968 L370.489,504.127 L369.741,504.286 L368.989,504.442 L368.234,504.597 L367.475,504.751 L366.714,504.903 L365.949,505.053 L365.18,505.201 L364.408,505.348 L363.633,505.494 L362.855,505.638 L362.072,505.78 L361.287,505.92 L360.497,506.059 L359.704,506.197 L358.908,506.332 L358.107,506.467 L357.303,506.599 L356.495,506.73 L355.683,506.859 L354.867,506.987 L354.047,507.113 L353.223,507.238 L352.395,507.361 L351.563,507.482 L350.726,507.602 L349.885,507.72 L349.04,507.836 L348.19,507.951 L347.336,508.064 L346.477,508.176 L345.614,508.286 L344.746,508.394 L343.873,508.501 L342.995,508.606 L342.112,508.71 L341.224,508.812 L340.331,508.913 L339.432,509.011 L338.528,509.108 L337.619,509.204 L336.704,509.298 L335.783,509.39 L334.857,509.481 L333.924,509.57 L332.986,509.658 L332.041,509.744 L331.09,509.828 L330.132,509.911 L329.167,509.992 L328.196,510.072 L327.218,510.149 L326.232,510.226 L325.239,510.3 L324.238,510.374 L323.23,510.445 L322.213,510.515 L321.189,510.583 L320.155,510.65 L319.113,510.715 L318.062,510.778 L317.001,510.84 L315.931,510.9 L314.851,510.959 L313.76,511.016 L312.659,511.072 L311.546,511.125 L310.422,511.178 L309.286,511.228 L308.137,511.277 L306.975,511.325 L305.799,511.37 L304.609,511.414 L303.404,511.457 L302.183,511.498 L300.945,511.537 L299.69,511.575 L298.417,511.611 L297.123,511.646 L295.809,511.679 L294.472,511.71 L293.111,511.74 L291.725,511.768 L290.311,511.794 L288.867,511.819 L287.391,511.843 L285.878,511.864 L284.327,511.884 L282.731,511.903 L281.086,511.92 L279.385,511.935 L277.619,511.949 L275.778,511.961 L273.847,511.971 L271.804,511.98 L269.62,511.987 L267.243,511.993 L264.58,511.997 L261.405,511.999 L256,512 L250.595,511.999 L247.42,511.997 L244.757,511.993 L242.38,511.987 L240.196,511.98 L238.153,511.971 L236.222,511.961 L234.381,511.949 L232.615,511.935 L230.914,511.92 L229.269,511.903 L227.673,511.884 L226.122,511.864 L224.609,511.843 L223.133,511.819 L221.689,511.794 L220.275,511.768 L218.889,511.74 L217.528,511.71 L216.191,511.679 L214.877,511.646 L213.583,511.611 L212.31,511.575 L211.055,511.537 L209.817,511.498 L208.596,511.457 L207.391,511.414 L206.201,511.37 L205.025,511.325 L203.863,511.277 L202.714,511.228 L201.578,511.178 L200.454,511.125 L199.341,511.072 L198.24,511.016 L197.149,510.959 L196.069,510.9 L194.999,510.84 L193.938,510.778 L192.887,510.715 L191.845,510.65 L190.811,510.583 L189.787,510.515 L188.77,510.445 L187.762,510.374 L186.761,510.3 L185.768,510.226 L184.782,510.149 L183.804,510.072 L182.833,509.992 L181.868,509.911 L180.91,509.828 L179.959,509.744 L179.014,509.658 L178.076,509.57 L177.143,509.481 L176.217,509.39 L175.296,509.298 L174.381,509.204 L173.472,509.108 L172.568,509.011 L171.669,508.913 L170.776,508.812 L169.888,508.71 L169.005,508.606 L168.127,508.501 L167.254,508.394 L166.386,508.286 L165.523,508.176 L164.664,508.064 L163.81,507.951 L162.96,507.836 L162.115,507.72 L161.274,507.602 L160.437,507.482 L159.605,507.361 L158.777,507.238 L157.953,507.113 L157.133,506.987 L156.317,506.859 L155.505,506.73 L154.697,506.599 L153.893,506.467 L153.092,506.332 L152.296,506.197 L151.503,506.059 L150.713,505.92 L149.928,505.78 L149.145,505.638 L148.367,505.494 L147.592,505.348 L146.82,505.201 L146.051,505.053 L145.286,504.903 L144.525,504.751 L143.766,504.597 L143.011,504.442 L142.259,504.286 L141.511,504.127 L140.765,503.968 L140.023,503.806 L139.283,503.643 L138.547,503.478 L137.814,503.312 L137.084,503.144 L136.357,502.975 L135.632,502.803 L134.911,502.631 L134.192,502.456 L133.477,502.28 L132.764,502.103 L132.054,501.924 L131.347,501.743 L130.643,501.561 L129.941,501.377 L129.242,501.191 L128.546,501.004 L127.853,500.815 L127.162,500.624 L126.474,500.432 L125.788,500.239 L125.106,500.044 L124.425,499.847 L123.748,499.648 L123.073,499.448 L122.4,499.246 L121.73,499.043 L121.062,498.838 L120.397,498.632 L119.735,498.423 L119.075,498.214 L118.417,498.002 L117.762,497.789 L117.109,497.575 L116.458,497.359 L115.81,497.141 L115.165,496.921 L114.521,496.7 L113.88,496.478 L113.242,496.253 L112.606,496.027 L111.971,495.8 L111.34,495.571 L110.71,495.34 L110.083,495.108 L109.458,494.874 L108.836,494.638 L108.215,494.401 L107.597,494.162 L106.981,493.922 L106.367,493.68 L105.756,493.436 L105.146,493.191 L104.539,492.944 L103.934,492.696 L103.331,492.446 L102.73,492.194 L102.132,491.94 L101.535,491.686 L100.941,491.429 L100.348,491.171 L99.758,490.911 L99.17,490.65 L98.584,490.386 L98,490.122 L97.418,489.856 L96.839,489.588 L96.261,489.318 L95.685,489.047 L95.111,488.774 L94.54,488.5 L93.97,488.224 L93.403,487.946 L92.837,487.667 L92.273,487.386 L91.712,487.104 L91.152,486.819 L90.594,486.534 L90.039,486.246 L89.485,485.957 L88.933,485.667 L88.384,485.374 L87.836,485.081 L87.29,484.785 L86.746,484.488 L86.204,484.189 L85.664,483.889 L85.126,483.587 L84.589,483.283 L84.055,482.978 L83.523,482.671 L82.992,482.362 L82.463,482.052 L81.937,481.74 L81.412,481.427 L80.889,481.112 L80.368,480.795 L79.849,480.477 L79.331,480.157 L78.816,479.835 L78.302,479.512 L77.79,479.187 L77.28,478.861 L76.772,478.532 L76.266,478.203 L75.762,477.871 L75.259,477.538 L74.758,477.203 L74.259,476.867 L73.762,476.529 L73.267,476.189 L72.774,475.848 L72.282,475.505 L71.792,475.161 L71.304,474.814 L70.818,474.466 L70.333,474.117 L69.851,473.766 L69.37,473.413 L68.891,473.058 L68.414,472.702 L67.938,472.344 L67.464,471.985 L66.993,471.624 L66.522,471.261 L66.054,470.897 L65.587,470.531 L65.122,470.163 L64.659,469.793 L64.198,469.422 L63.738,469.05 L63.281,468.675 L62.825,468.299 L62.37,467.922 L61.918,467.542 L61.467,467.161 L61.018,466.778 L60.57,466.394 L60.125,466.008 L59.681,465.62 L59.239,465.231 L58.798,464.84 L58.36,464.447 L57.923,464.052 L57.487,463.656 L57.054,463.258 L56.622,462.859 L56.192,462.458 L55.763,462.055 L55.337,461.65 L54.912,461.244 L54.489,460.836 L54.067,460.426 L53.647,460.015 L53.229,459.602 L52.813,459.187 L52.398,458.771 L51.985,458.353 L51.574,457.933 L51.164,457.511 L50.756,457.088 L50.35,456.663 L49.945,456.237 L49.542,455.808 L49.141,455.378 L48.742,454.946 L48.344,454.513 L47.948,454.077 L47.553,453.64 L47.16,453.202 L46.769,452.761 L46.38,452.319 L45.992,451.875 L45.606,451.43 L45.222,450.982 L44.839,450.533 L44.458,450.082 L44.078,449.63 L43.701,449.175 L43.325,448.719 L42.95,448.262 L42.578,447.802 L42.207,447.341 L41.837,446.878 L41.469,446.413 L41.103,445.946 L40.739,445.478 L40.376,445.007 L40.015,444.536 L39.656,444.062 L39.298,443.586 L38.942,443.109 L38.587,442.63 L38.234,442.149 L37.883,441.667 L37.534,441.182 L37.186,440.696 L36.839,440.208 L36.495,439.718 L36.152,439.226 L35.811,438.733 L35.471,438.238 L35.133,437.741 L34.797,437.242 L34.462,436.741 L34.129,436.238 L33.797,435.734 L33.468,435.228 L33.139,434.72 L32.813,434.21 L32.488,433.698 L32.165,433.184 L31.843,432.669 L31.523,432.151 L31.205,431.632 L30.888,431.111 L30.573,430.588 L30.26,430.063 L29.948,429.537 L29.638,429.008 L29.329,428.477 L29.022,427.945 L28.717,427.411 L28.413,426.874 L28.111,426.336 L27.811,425.796 L27.512,425.254 L27.215,424.71 L26.919,424.164 L26.626,423.616 L26.333,423.067 L26.043,422.515 L25.754,421.961 L25.466,421.406 L25.181,420.848 L24.896,420.288 L24.614,419.727 L24.333,419.163 L24.054,418.597 L23.776,418.03 L23.5,417.46 L23.226,416.889 L22.953,416.315 L22.682,415.739 L22.412,415.161 L22.144,414.582 L21.878,414 L21.614,413.416 L21.35,412.83 L21.089,412.242 L20.829,411.652 L20.571,411.059 L20.314,410.465 L20.06,409.868 L19.806,409.27 L19.554,408.669 L19.304,408.066 L19.056,407.461 L18.809,406.854 L18.564,406.244 L18.32,405.633 L18.078,405.019 L17.838,404.403 L17.599,403.785 L17.362,403.164 L17.126,402.542 L16.892,401.917 L16.66,401.29 L16.429,400.66 L16.2,400.029 L15.973,399.394 L15.747,398.758 L15.522,398.12 L15.3,397.479 L15.079,396.835 L14.859,396.19 L14.641,395.542 L14.425,394.891 L14.211,394.238 L13.998,393.583 L13.786,392.925 L13.577,392.265 L13.368,391.603 L13.162,390.938 L12.957,390.27 L12.754,389.6 L12.552,388.927 L12.352,388.252 L12.153,387.575 L11.956,386.894 L11.761,386.212 L11.568,385.526 L11.376,384.838 L11.185,384.147 L10.996,383.454 L10.809,382.758 L10.623,382.059 L10.439,381.357 L10.257,380.653 L10.076,379.946 L9.897,379.236 L9.72,378.523 L9.544,377.808 L9.369,377.089 L9.197,376.368 L9.025,375.643 L8.856,374.916 L8.688,374.186 L8.522,373.453 L8.357,372.717 L8.194,371.977 L8.032,371.235 L7.873,370.489 L7.714,369.741 L7.558,368.989 L7.403,368.234 L7.249,367.475 L7.097,366.714 L6.947,365.949 L6.799,365.18 L6.652,364.408 L6.506,363.633 L6.362,362.855 L6.22,362.072 L6.08,361.287 L5.941,360.497 L5.803,359.704 L5.668,358.908 L5.533,358.107 L5.401,357.303 L5.27,356.495 L5.141,355.683 L5.013,354.867 L4.887,354.047 L4.762,353.223 L4.639,352.395 L4.518,351.563 L4.398,350.726 L4.28,349.885 L4.164,349.04 L4.049,348.19 L3.936,347.336 L3.824,346.477 L3.714,345.614 L3.606,344.746 L3.499,343.873 L3.394,342.995 L3.29,342.112 L3.188,341.224 L3.087,340.331 L2.989,339.432 L2.892,338.528 L2.796,337.619 L2.702,336.704 L2.61,335.783 L2.519,334.857 L2.43,333.924 L2.342,332.986 L2.256,332.041 L2.172,331.09 L2.089,330.132 L2.008,329.167 L1.928,328.196 L1.851,327.218 L1.774,326.232 L1.7,325.239 L1.626,324.238 L1.555,323.23 L1.485,322.213 L1.417,321.189 L1.35,320.155 L1.285,319.113 L1.222,318.062 L1.16,317.001 L1.1,315.931 L1.041,314.851 L0.984,313.76 L0.928,312.659 L0.875,311.546 L0.822,310.422 L0.772,309.286 L0.723,308.137 L0.675,306.975 L0.63,305.799 L0.586,304.609 L0.543,303.404 L0.502,302.183 L0.463,300.945 L0.425,299.69 L0.389,298.417 L0.354,297.123 L0.321,295.809 L0.29,294.472 L0.26,293.111 L0.232,291.725 L0.206,290.311 L0.181,288.867 L0.157,287.391 L0.136,285.878 L0.116,284.327 L0.097,282.731 L0.08,281.086 L0.065,279.385 L0.051,277.619 L0.039,275.778 L0.029,273.847 L0.02,271.804 L0.013,269.62 L0.007,267.243 L0.003,264.58 L0.001,261.405 L0,256 L0.001,250.595 L0.003,247.42 L0.007,244.757 L0.013,242.38 L0.02,240.196 L0.029,238.153 L0.039,236.222 L0.051,234.381 L0.065,232.615 L0.08,230.914 L0.097,229.269 L0.116,227.673 L0.136,226.122 L0.157,224.609 L0.181,223.133 L0.206,221.689 L0.232,220.275 L0.26,218.889 L0.29,217.528 L0.321,216.191 L0.354,214.877 L0.389,213.583 L0.425,212.31 L0.463,211.055 L0.502,209.817 L0.543,208.596 L0.586,207.391 L0.63,206.201 L0.675,205.025 L0.723,203.863 L0.772,202.714 L0.822,201.578 L0.875,200.454 L0.928,199.341 L0.984,198.24 L1.041,197.149 L1.1,196.069 L1.16,194.999 L1.222,193.938 L1.285,192.887 L1.35,191.845 L1.417,190.811 L1.485,189.787 L1.555,188.77 L1.626,187.762 L1.7,186.761 L1.774,185.768 L1.851,184.782 L1.928,183.804 L2.008,182.833 L2.089,181.868 L2.172,180.91 L2.256,179.959 L2.342,179.014 L2.43,178.076 L2.519,177.143 L2.61,176.217 L2.702,175.296 L2.796,174.381 L2.892,173.472 L2.989,172.568 L3.087,171.669 L3.188,170.776 L3.29,169.888 L3.394,169.005 L3.499,168.127 L3.606,167.254 L3.714,166.386 L3.824,165.523 L3.936,164.664 L4.049,163.81 L4.164,162.96 L4.28,162.115 L4.398,161.274 L4.518,160.437 L4.639,159.605 L4.762,158.777 L4.887,157.953 L5.013,157.133 L5.141,156.317 L5.27,155.505 L5.401,154.697 L5.533,153.893 L5.668,153.092 L5.803,152.296 L5.941,151.503 L6.08,150.713 L6.22,149.928 L6.362,149.145 L6.506,148.367 L6.652,147.592 L6.799,146.82 L6.947,146.051 L7.097,145.286 L7.249,144.525 L7.403,143.766 L7.558,143.011 L7.714,142.259 L7.873,141.511 L8.032,140.765 L8.194,140.023 L8.357,139.283 L8.522,138.547 L8.688,137.814 L8.856,137.084 L9.025,136.357 L9.197,135.632 L9.369,134.911 L9.544,134.192 L9.72,133.477 L9.897,132.764 L10.076,132.054 L10.257,131.347 L10.439,130.643 L10.623,129.941 L10.809,129.242 L10.996,128.546 L11.185,127.853 L11.376,127.162 L11.568,126.474 L11.761,125.788 L11.956,125.106 L12.153,124.425 L12.352,123.748 L12.552,123.073 L12.754,122.4 L12.957,121.73 L13.162,121.062 L13.368,120.397 L13.577,119.735 L13.786,119.075 L13.998,118.417 L14.211,117.762 L14.425,117.109 L14.641,116.458 L14.859,115.81 L15.079,115.165 L15.3,114.521 L15.522,113.88 L15.747,113.242 L15.973,112.606 L16.2,111.971 L16.429,111.34 L16.66,110.71 L16.892,110.083 L17.126,109.458 L17.362,108.836 L17.599,108.215 L17.838,107.597 L18.078,106.981 L18.32,106.367 L18.564,105.756 L18.809,105.146 L19.056,104.539 L19.304,103.934 L19.554,103.331 L19.806,102.73 L20.06,102.132 L20.314,101.535 L20.571,100.941 L20.829,100.348 L21.089,99.758 L21.35,99.17 L21.614,98.584 L21.878,98 L22.144,97.418 L22.412,96.839 L22.682,96.261 L22.953,95.685 L23.226,95.111 L23.5,94.54 L23.776,93.97 L24.054,93.403 L24.333,92.837 L24.614,92.273 L24.896,91.712 L25.181,91.152 L25.466,90.594 L25.754,90.039 L26.043,89.485 L26.333,88.933 L26.626,88.384 L26.919,87.836 L27.215,87.29 L27.512,86.746 L27.811,86.204 L28.111,85.664 L28.413,85.126 L28.717,84.589 L29.022,84.055 L29.329,83.523 L29.638,82.992 L29.948,82.463 L30.26,81.937 L30.573,81.412 L30.888,80.889 L31.205,80.368 L31.523,79.849 L31.843,79.331 L32.165,78.816 L32.488,78.302 L32.813,77.79 L33.139,77.28 L33.468,76.772 L33.797,76.266 L34.129,75.762 L34.462,75.259 L34.797,74.758 L35.133,74.259 L35.471,73.762 L35.811,73.267 L36.152,72.774 L36.495,72.282 L36.839,71.792 L37.186,71.304 L37.534,70.818 L37.883,70.333 L38.234,69.851 L38.587,69.37 L38.942,68.891 L39.298,68.414 L39.656,67.938 L40.015,67.464 L40.376,66.993 L40.739,66.522 L41.103,66.054 L41.469,65.587 L41.837,65.122 L42.207,64.659 L42.578,64.198 L42.95,63.738 L43.325,63.281 L43.701,62.825 L44.078,62.37 L44.458,61.918 L44.839,61.467 L45.222,61.018 L45.606,60.57 L45.992,60.125 L46.38,59.681 L46.769,59.239 L47.16,58.798 L47.553,58.36 L47.948,57.923 L48.344,57.487 L48.742,57.054 L49.141,56.622 L49.542,56.192 L49.945,55.763 L50.35,55.337 L50.756,54.912 L51.164,54.489 L51.574,54.067 L51.985,53.647 L52.398,53.229 L52.813,52.813 L53.229,52.398 L53.647,51.985 L54.067,51.574 L54.489,51.164 L54.912,50.756 L55.337,50.35 L55.763,49.945 L56.192,49.542 L56.622,49.141 L57.054,48.742 L57.487,48.344 L57.923,47.948 L58.36,47.553 L58.798,47.16 L59.239,46.769 L59.681,46.38 L60.125,45.992 L60.57,45.606 L61.018,45.222 L61.467,44.839 L61.918,44.458 L62.37,44.078 L62.825,43.701 L63.281,43.325 L63.738,42.95 L64.198,42.578 L64.659,42.207 L65.122,41.837 L65.587,41.469 L66.054,41.103 L66.522,40.739 L66.993,40.376 L67.464,40.015 L67.938,39.656 L68.414,39.298 L68.891,38.942 L69.37,38.587 L69.851,38.234 L70.333,37.883 L70.818,37.534 L71.304,37.186 L71.792,36.839 L72.282,36.495 L72.774,36.152 L73.267,35.811 L73.762,35.471 L74.259,35.133 L74.758,34.797 L75.259,34.462 L75.762,34.129 L76.266,33.797 L76.772,33.468 L77.28,33.139 L77.79,32.813 L78.302,32.488 L78.816,32.165 L79.331,31.843 L79.849,31.523 L80.368,31.205 L80.889,30.888 L81.412,30.573 L81.937,30.26 L82.463,29.948 L82.992,29.638 L83.523,29.329 L84.055,29.022 L84.589,28.717 L85.126,28.413 L85.664,28.111 L86.204,27.811 L86.746,27.512 L87.29,27.215 L87.836,26.919 L88.384,26.626 L88.933,26.333 L89.485,26.043 L90.039,25.754 L90.594,25.466 L91.152,25.181 L91.712,24.896 L92.273,24.614 L92.837,24.333 L93.403,24.054 L93.97,23.776 L94.54,23.5 L95.111,23.226 L95.685,22.953 L96.261,22.682 L96.839,22.412 L97.418,22.144 L98,21.878 L98.584,21.614 L99.17,21.35 L99.758,21.089 L100.348,20.829 L100.941,20.571 L101.535,20.314 L102.132,20.06 L102.73,19.806 L103.331,19.554 L103.934,19.304 L104.539,19.056 L105.146,18.809 L105.756,18.564 L106.367,18.32 L106.981,18.078 L107.597,17.838 L108.215,17.599 L108.836,17.362 L109.458,17.126 L110.083,16.892 L110.71,16.66 L111.34,16.429 L111.971,16.2 L112.606,15.973 L113.242,15.747 L113.88,15.522 L114.521,15.3 L115.165,15.079 L115.81,14.859 L116.458,14.641 L117.109,14.425 L117.762,14.211 L118.417,13.998 L119.075,13.786 L119.735,13.577 L120.397,13.368 L121.062,13.162 L121.73,12.957 L122.4,12.754 L123.073,12.552 L123.748,12.352 L124.425,12.153 L125.106,11.956 L125.788,11.761 L126.474,11.568 L127.162,11.376 L127.853,11.185 L128.546,10.996 L129.242,10.809 L129.941,10.623 L130.643,10.439 L131.347,10.257 L132.054,10.076 L132.764,9.897 L133.477,9.72 L134.192,9.544 L134.911,9.369 L135.632,9.197 L136.357,9.025 L137.084,8.856 L137.814,8.688 L138.547,8.522 L139.283,8.357 L140.023,8.194 L140.765,8.032 L141.511,7.873 L142.259,7.714 L143.011,7.558 L143.766,7.403 L144.525,7.249 L145.286,7.097 L146.051,6.947 L146.82,6.799 L147.592,6.652 L148.367,6.506 L149.145,6.362 L149.928,6.22 L150.713,6.08 L151.503,5.941 L152.296,5.803 L153.092,5.668 L153.893,5.533 L154.697,5.401 L155.505,5.27 L156.317,5.141 L157.133,5.013 L157.953,4.887 L158.777,4.762 L159.605,4.639 L160.437,4.518 L161.274,4.398 L162.115,4.28 L162.96,4.164 L163.81,4.049 L164.664,3.936 L165.523,3.824 L166.386,3.714 L167.254,3.606 L168.127,3.499 L169.005,3.394 L169.888,3.29 L170.776,3.188 L171.669,3.087 L172.568,2.989 L173.472,2.892 L174.381,2.796 L175.296,2.702 L176.217,2.61 L177.143,2.519 L178.076,2.43 L179.014,2.342 L179.959,2.256 L180.91,2.172 L181.868,2.089 L182.833,2.008 L183.804,1.928 L184.782,1.851 L185.768,1.774 L186.761,1.7 L187.762,1.626 L188.77,1.555 L189.787,1.485 L190.811,1.417 L191.845,1.35 L192.887,1.285 L193.938,1.222 L194.999,1.16 L196.069,1.1 L197.149,1.041 L198.24,0.984 L199.341,0.928 L200.454,0.875 L201.578,0.822 L202.714,0.772 L203.863,0.723 L205.025,0.675 L206.201,0.63 L207.391,0.586 L208.596,0.543 L209.817,0.502 L211.055,0.463 L212.31,0.425 L213.583,0.389 L214.877,0.354 L216.191,0.321 L217.528,0.29 L218.889,0.26 L220.275,0.232 L221.689,0.206 L223.133,0.181 L224.609,0.157 L226.122,0.136 L227.673,0.116 L229.269,0.097 L230.914,0.08 L232.615,0.065 L234.381,0.051 L236.222,0.039 L238.153,0.029 L240.196,0.02 L242.38,0.013 L244.757,0.007 L247.42,0.003 L250.595,0.001 L256,0 L261.405,0.001 L264.58,0.003 L267.243,0.007 L269.62,0.013 L271.804,0.02 L273.847,0.029 L275.778,0.039 L277.619,0.051 L279.385,0.065 L281.086,0.08 L282.731,0.097 L284.327,0.116 L285.878,0.136 L287.391,0.157 L288.867,0.181 L290.311,0.206 L291.725,0.232 L293.111,0.26 L294.472,0.29 L295.809,0.321 L297.123,0.354 L298.417,0.389 L299.69,0.425 L300.945,0.463 L302.183,0.502 L303.404,0.543 L304.609,0.586 L305.799,0.63 L306.975,0.675 L308.137,0.723 L309.286,0.772 L310.422,0.822 L311.546,0.875 L312.659,0.928 L313.76,0.984 L314.851,1.041 L315.931,1.1 L317.001,1.16 L318.062,1.222 L319.113,1.285 L320.155,1.35 L321.189,1.417 L322.213,1.485 L323.23,1.555 L324.238,1.626 L325.239,1.7 L326.232,1.774 L327.218,1.851 L328.196,1.928 L329.167,2.008 L330.132,2.089 L331.09,2.172 L332.041,2.256 L332.986,2.342 L333.924,2.43 L334.857,2.519 L335.783,2.61 L336.704,2.702 L337.619,2.796 L338.528,2.892 L339.432,2.989 L340.331,3.087 L341.224,3.188 L342.112,3.29 L342.995,3.394 L343.873,3.499 L344.746,3.606 L345.614,3.714 L346.477,3.824 L347.336,3.936 L348.19,4.049 L349.04,4.164 L349.885,4.28 L350.726,4.398 L351.563,4.518 L352.395,4.639 L353.223,4.762 L354.047,4.887 L354.867,5.013 L355.683,5.141 L356.495,5.27 L357.303,5.401 L358.107,5.533 L358.908,5.668 L359.704,5.803 L360.497,5.941 L361.287,6.08 L362.072,6.22 L362.855,6.362 L363.633,6.506 L364.408,6.652 L365.18,6.799 L365.949,6.947 L366.714,7.097 L367.475,7.249 L368.234,7.403 L368.989,7.558 L369.741,7.714 L370.489,7.873 L371.235,8.032 L371.977,8.194 L372.717,8.357 L373.453,8.522 L374.186,8.688 L374.916,8.856 L375.643,9.025 L376.368,9.197 L377.089,9.369 L377.808,9.544 L378.523,9.72 L379.236,9.897 L379.946,10.076 L380.653,10.257 L381.357,10.439 L382.059,10.623 L382.758,10.809 L383.454,10.996 L384.147,11.185 L384.838,11.376 L385.526,11.568 L386.212,11.761 L386.894,11.956 L387.575,12.153 L388.252,12.352 L388.927,12.552 L389.6,12.754 L390.27,12.957 L390.938,13.162 L391.603,13.368 L392.265,13.577 L392.925,13.786 L393.583,13.998 L394.238,14.211 L394.891,14.425 L395.542,14.641 L396.19,14.859 L396.835,15.079 L397.479,15.3 L398.12,15.522 L398.758,15.747 L399.394,15.973 L400.029,16.2 L400.66,16.429 L401.29,16.66 L401.917,16.892 L402.542,17.126 L403.164,17.362 L403.785,17.599 L404.403,17.838 L405.019,18.078 L405.633,18.32 L406.244,18.564 L406.854,18.809 L407.461,19.056 L408.066,19.304 L408.669,19.554 L409.27,19.806 L409.868,20.06 L410.465,20.314 L411.059,20.571 L411.652,20.829 L412.242,21.089 L412.83,21.35 L413.416,21.614 L414,21.878 L414.582,22.144 L415.161,22.412 L415.739,22.682 L416.315,22.953 L416.889,23.226 L417.46,23.5 L418.03,23.776 L418.597,24.054 L419.163,24.333 L419.727,24.614 L420.288,24.896 L420.848,25.181 L421.406,25.466 L421.961,25.754 L422.515,26.043 L423.067,26.333 L423.616,26.626 L424.164,26.919 L424.71,27.215 L425.254,27.512 L425.796,27.811 L426.336,28.111 L426.874,28.413 L427.411,28.717 L427.945,29.022 L428.477,29.329 L429.008,29.638 L429.537,29.948 L430.063,30.26 L430.588,30.573 L431.111,30.888 L431.632,31.205 L432.151,31.523 L432.669,31.843 L433.184,32.165 L433.698,32.488 L434.21,32.813 L434.72,33.139 L435.228,33.468 L435.734,33.797 L436.238,34.129 L436.741,34.462 L437.242,34.797 L437.741,35.133 L438.238,35.471 L438.733,35.811 L439.226,36.152 L439.718,36.495 L440.208,36.839 L440.696,37.186 L441.182,37.534 L441.667,37.883 L442.149,38.234 L442.63,38.587 L443.109,38.942 L443.586,39.298 L444.062,39.656 L444.536,40.015 L445.007,40.376 L445.478,40.739 L445.946,41.103 L446.413,41.469 L446.878,41.837 L447.341,42.207 L447.802,42.578 L448.262,42.95 L448.719,43.325 L449.175,43.701 L449.63,44.078 L450.082,44.458 L450.533,44.839 L450.982,45.222 L451.43,45.606 L451.875,45.992 L452.319,46.38 L452.761,46.769 L453.202,47.16 L453.64,47.553 L454.077,47.948 L454.513,48.344 L454.946,48.742 L455.378,49.141 L455.808,49.542 L456.237,49.945 L456.663,50.35 L457.088,50.756 L457.511,51.164 L457.933,51.574 L458.353,51.985 L458.771,52.398 L459.187,52.813 L459.602,53.229 L460.015,53.647 L460.426,54.067 L460.836,54.489 L461.244,54.912 L461.65,55.337 L462.055,55.763 L462.458,56.192 L462.859,56.622 L463.258,57.054 L463.656,57.487 L464.052,57.923 L464.447,58.36 L464.84,58.798 L465.231,59.239 L465.62,59.681 L466.008,60.125 L466.394,60.57 L466.778,61.018 L467.161,61.467 L467.542,61.918 L467.922,62.37 L468.299,62.825 L468.675,63.281 L469.05,63.738 L469.422,64.198 L469.793,64.659 L470.163,65.122 L470.531,65.587 L470.897,66.054 L471.261,66.522 L471.624,66.993 L471.985,67.464 L472.344,67.938 L472.702,68.414 L473.058,68.891 L473.413,69.37 L473.766,69.851 L474.117,70.333 L474.466,70.818 L474.814,71.304 L475.161,71.792 L475.505,72.282 L475.848,72.774 L476.189,73.267 L476.529,73.762 L476.867,74.259 L477.203,74.758 L477.538,75.259 L477.871,75.762 L478.203,76.266 L478.532,76.772 L478.861,77.28 L479.187,77.79 L479.512,78.302 L479.835,78.816 L480.157,79.331 L480.477,79.849 L480.795,80.368 L481.112,80.889 L481.427,81.412 L481.74,81.937 L482.052,82.463 L482.362,82.992 L482.671,83.523 L482.978,84.055 L483.283,84.589 L483.587,85.126 L483.889,85.664 L484.189,86.204 L484.488,86.746 L484.785,87.29 L485.081,87.836 L485.374,88.384 L485.667,88.933 L485.957,89.485 L486.246,90.039 L486.534,90.594 L486.819,91.152 L487.104,91.712 L487.386,92.273 L487.667,92.837 L487.946,93.403 L488.224,93.97 L488.5,94.54 L488.774,95.111 L489.047,95.685 L489.318,96.261 L489.588,96.839 L489.856,97.418 L490.122,98 L490.386,98.584 L490.65,99.17 L490.911,99.758 L491.171,100.348 L491.429,100.941 L491.686,101.535 L491.94,102.132 L492.194,102.73 L492.446,103.331 L492.696,103.934 L492.944,104.539 L493.191,105.146 L493.436,105.756 L493.68,106.367 L493.922,106.981 L494.162,107.597 L494.401,108.215 L494.638,108.836 L494.874,109.458 L495.108,110.083 L495.34,110.71 L495.571,111.34 L495.8,111.971 L496.027,112.606 L496.253,113.242 L496.478,113.88 L496.7,114.521 L496.921,115.165 L497.141,115.81 L497.359,116.458 L497.575,117.109 L497.789,117.762 L498.002,118.417 L498.214,119.075 L498.423,119.735 L498.632,120.397 L498.838,121.062 L499.043,121.73 L499.246,122.4 L499.448,123.073 L499.648,123.748 L499.847,124.425 L500.044,125.106 L500.239,125.788 L500.432,126.474 L500.624,127.162 L500.815,127.853 L501.004,128.546 L501.191,129.242 L501.377,129.941 L501.561,130.643 L501.743,131.347 L501.924,132.054 L502.103,132.764 L502.28,133.477 L502.456,134.192 L502.631,134.911 L502.803,135.632 L502.975,136.357 L503.144,137.084 L503.312,137.814 L503.478,138.547 L503.643,139.283 L503.806,140.023 L503.968,140.765 L504.127,141.511 L504.286,142.259 L504.442,143.011 L504.597,143.766 L504.751,144.525 L504.903,145.286 L505.053,146.051 L505.201,146.82 L505.348,147.592 L505.494,148.367 L505.638,149.145 L505.78,149.928 L505.92,150.713 L506.059,151.503 L506.197,152.296 L506.332,153.092 L506.467,153.893 L506.599,154.697 L506.73,155.505 L506.859,156.317 L506.987,157.133 L507.113,157.953 L507.238,158.777 L507.361,159.605 L507.482,160.437 L507.602,161.274 L507.72,162.115 L507.836,162.96 L507.951,163.81 L508.064,164.664 L508.176,165.523 L508.286,166.386 L508.394,167.254 L508.501,168.127 L508.606,169.005 L508.71,169.888 L508.812,170.776 L508.913,171.669 L509.011,172.568 L509.108,173.472 L509.204,174.381 L509.298,175.296 L509.39,176.217 L509.481,177.143 L509.57,178.076 L509.658,179.014 L509.744,179.959 L509.828,180.91 L509.911,181.868 L509.992,182.833 L510.072,183.804 L510.149,184.782 L510.226,185.768 L510.3,186.761 L510.374,187.762 L510.445,188.77 L510.515,189.787 L510.583,190.811 L510.65,191.845 L510.715,192.887 L510.778,193.938 L510.84,194.999 L510.9,196.069 L510.959,197.149 L511.016,198.24 L511.072,199.341 L511.125,200.454 L511.178,201.578 L511.228,202.714 L511.277,203.863 L511.325,205.025 L511.37,206.201 L511.414,207.391 L511.457,208.596 L511.498,209.817 L511.537,211.055 L511.575,212.31 L511.611,213.583 L511.646,214.877 L511.679,216.191 L511.71,217.528 L511.74,218.889 L511.768,220.275 L511.794,221.689 L511.819,223.133 L511.843,224.609 L511.864,226.122 L511.884,227.673 L511.903,229.269 L511.92,230.914 L511.935,232.615 L511.949,234.381 L511.961,236.222 L511.971,238.153 L511.98,240.196 L511.987,242.38 L511.993,244.757 L511.997,247.42 L511.999,250.595 L512,256 Z" />
</svg>
